REM DIRINDEX 1\2\4,1\2\5,1\2\6,1\3\7,1\3\8,1\3\9,1\3\10
REM DIRNAME cjc057,folder01,folder02,folder03,folder04,folder05,folder06,folder07,folder08,folder09
TITLE ""
FILE "b_115.mp3" MP3
  TRACK 01 AUDIO
    TITLE "0:"
    INDEX 01 00:00:00
  TRACK 02 AUDIO
    TITLE "7:cjc057_07279"
    INDEX 01 00:00:13
  TRACK 03 AUDIO
    TITLE "0:"
    INDEX 01 00:01:19
  TRACK 04 AUDIO
    TITLE "8:cjc057_07280"
    INDEX 01 00:01:56
  TRACK 05 AUDIO
    TITLE "0:"
    INDEX 01 00:03:51
  TRACK 06 AUDIO
    TITLE "7:cjc057_07281"
    INDEX 01 00:04:60
  TRACK 07 AUDIO
    TITLE "0:"
    INDEX 01 00:05:67
  TRACK 08 AUDIO
    TITLE "8:cjc057_07282"
    INDEX 01 00:06:28
  TRACK 09 AUDIO
    TITLE "0:"
    INDEX 01 00:08:24
  TRACK 10 AUDIO
    TITLE "7:cjc057_07283"
    INDEX 01 00:09:32
  TRACK 11 AUDIO
    TITLE "0:"
    INDEX 01 00:10:53
  TRACK 12 AUDIO
    TITLE "8:cjc057_07284"
    INDEX 01 00:11:11
  TRACK 13 AUDIO
    TITLE "0:"
    INDEX 01 00:13:35
  TRACK 14 AUDIO
    TITLE "7:cjc057_07285"
    INDEX 01 00:14:43
  TRACK 15 AUDIO
    TITLE "0:"
    INDEX 01 00:15:54
  TRACK 16 AUDIO
    TITLE "8:cjc057_07286"
    INDEX 01 00:16:14
  TRACK 17 AUDIO
    TITLE "0:"
    INDEX 01 00:18:19
  TRACK 18 AUDIO
    TITLE "7:cjc057_07287"
    INDEX 01 00:19:26
  TRACK 19 AUDIO
    TITLE "0:"
    INDEX 01 00:20:39
  TRACK 20 AUDIO
    TITLE "8:cjc057_07288"
    INDEX 01 00:21:00
  TRACK 21 AUDIO
    TITLE "0:"
    INDEX 01 00:23:06
  TRACK 22 AUDIO
    TITLE "7:cjc057_07289"
    INDEX 01 00:24:18
  TRACK 23 AUDIO
    TITLE "0:"
    INDEX 01 00:25:58
  TRACK 24 AUDIO
    TITLE "8:cjc057_07290"
    INDEX 01 00:26:18
  TRACK 25 AUDIO
    TITLE "0:"
    INDEX 01 00:28:25
  TRACK 26 AUDIO
    TITLE "7:cjc057_07291"
    INDEX 01 00:29:34
  TRACK 27 AUDIO
    TITLE "0:"
    INDEX 01 00:30:38
  TRACK 28 AUDIO
    TITLE "8:cjc057_07292"
    INDEX 01 00:30:73
  TRACK 29 AUDIO
    TITLE "0:"
    INDEX 01 00:33:11
  TRACK 30 AUDIO
    TITLE "7:cjc057_07293"
    INDEX 01 00:34:24
  TRACK 31 AUDIO
    TITLE "0:"
    INDEX 01 00:35:37
  TRACK 32 AUDIO
    TITLE "8:cjc057_07294"
    INDEX 01 00:35:72
  TRACK 33 AUDIO
    TITLE "0:"
    INDEX 01 00:38:04
  TRACK 34 AUDIO
    TITLE "7:cjc057_07295"
    INDEX 01 00:39:15
  TRACK 35 AUDIO
    TITLE "0:"
    INDEX 01 00:40:19
  TRACK 36 AUDIO
    TITLE "8:cjc057_07296"
    INDEX 01 00:40:56
  TRACK 37 AUDIO
    TITLE "0:"
    INDEX 01 00:43:56
  TRACK 38 AUDIO
    TITLE "7:cjc057_07297"
    INDEX 01 00:44:65
  TRACK 39 AUDIO
    TITLE "0:"
    INDEX 01 00:46:00
  TRACK 40 AUDIO
    TITLE "8:cjc057_07298"
    INDEX 01 00:46:37
  TRACK 41 AUDIO
    TITLE "0:"
    INDEX 01 00:48:32
  TRACK 42 AUDIO
    TITLE "7:cjc057_07299"
    INDEX 01 00:49:41
  TRACK 43 AUDIO
    TITLE "0:"
    INDEX 01 00:50:52
  TRACK 44 AUDIO
    TITLE "8:cjc057_07300"
    INDEX 01 00:51:13
  TRACK 45 AUDIO
    TITLE "0:"
    INDEX 01 00:54:58
  TRACK 46 AUDIO
    TITLE "7:cjc057_07301"
    INDEX 01 00:55:69
  TRACK 47 AUDIO
    TITLE "0:"
    INDEX 01 00:57:07
  TRACK 48 AUDIO
    TITLE "8:cjc057_07302"
    INDEX 01 00:57:43
  TRACK 49 AUDIO
    TITLE "0:"
    INDEX 01 01:00:00
  TRACK 50 AUDIO
    TITLE "7:cjc057_07303"
    INDEX 01 01:01:07
  TRACK 51 AUDIO
    TITLE "0:"
    INDEX 01 01:02:12
  TRACK 52 AUDIO
    TITLE "8:cjc057_07304"
    INDEX 01 01:02:48
  TRACK 53 AUDIO
    TITLE "0:"
    INDEX 01 01:06:47
  TRACK 54 AUDIO
    TITLE "7:cjc057_07305"
    INDEX 01 01:07:57
  TRACK 55 AUDIO
    TITLE "0:"
    INDEX 01 01:08:70
  TRACK 56 AUDIO
    TITLE "8:cjc057_07306"
    INDEX 01 01:09:30
  TRACK 57 AUDIO
    TITLE "0:"
    INDEX 01 01:11:58
  TRACK 58 AUDIO
    TITLE "7:cjc057_07307"
    INDEX 01 01:12:70
  TRACK 59 AUDIO
    TITLE "0:"
    INDEX 01 01:14:08
  TRACK 60 AUDIO
    TITLE "8:cjc057_07308"
    INDEX 01 01:14:45
  TRACK 61 AUDIO
    TITLE "0:"
    INDEX 01 01:17:59
  TRACK 62 AUDIO
    TITLE "7:cjc057_07309"
    INDEX 01 01:18:68
  TRACK 63 AUDIO
    TITLE "0:"
    INDEX 01 01:20:00
  TRACK 64 AUDIO
    TITLE "8:cjc057_07310"
    INDEX 01 01:20:36
  TRACK 65 AUDIO
    TITLE "0:"
    INDEX 01 01:21:41
  TRACK 66 AUDIO
    TITLE "7:cjc057_07311"
    INDEX 01 01:22:50
  TRACK 67 AUDIO
    TITLE "0:"
    INDEX 01 01:23:69
  TRACK 68 AUDIO
    TITLE "8:cjc057_07312"
    INDEX 01 01:24:28
  TRACK 69 AUDIO
    TITLE "0:"
    INDEX 01 01:27:46
  TRACK 70 AUDIO
    TITLE "7:cjc057_07313"
    INDEX 01 01:28:55
  TRACK 71 AUDIO
    TITLE "0:"
    INDEX 01 01:29:56
  TRACK 72 AUDIO
    TITLE "8:cjc057_07314"
    INDEX 01 01:30:18
  TRACK 73 AUDIO
    TITLE "0:"
    INDEX 01 01:32:60
  TRACK 74 AUDIO
    TITLE "7:cjc057_07315"
    INDEX 01 01:33:72
  TRACK 75 AUDIO
    TITLE "0:"
    INDEX 01 01:35:02
  TRACK 76 AUDIO
    TITLE "8:cjc057_07316"
    INDEX 01 01:35:37
  TRACK 77 AUDIO
    TITLE "0:"
    INDEX 01 01:37:44
  TRACK 78 AUDIO
    TITLE "7:cjc057_07317"
    INDEX 01 01:38:53
  TRACK 79 AUDIO
    TITLE "0:"
    INDEX 01 01:39:68
  TRACK 80 AUDIO
    TITLE "8:cjc057_07318"
    INDEX 01 01:40:29
  TRACK 81 AUDIO
    TITLE "0:"
    INDEX 01 01:42:67
  TRACK 82 AUDIO
    TITLE "7:cjc057_07319"
    INDEX 01 01:44:05
  TRACK 83 AUDIO
    TITLE "0:"
    INDEX 01 01:45:12
  TRACK 84 AUDIO
    TITLE "8:cjc057_07320"
    INDEX 01 01:45:47
  TRACK 85 AUDIO
    TITLE "0:"
    INDEX 01 01:48:50
  TRACK 86 AUDIO
    TITLE "7:cjc057_07321"
    INDEX 01 01:49:61
  TRACK 87 AUDIO
    TITLE "0:"
    INDEX 01 01:50:68
  TRACK 88 AUDIO
    TITLE "8:cjc057_07322"
    INDEX 01 01:51:28
  TRACK 89 AUDIO
    TITLE "0:"
    INDEX 01 01:52:34
  TRACK 90 AUDIO
    TITLE "7:cjc057_07323"
    INDEX 01 01:53:43
  TRACK 91 AUDIO
    TITLE "0:"
    INDEX 01 01:54:52
  TRACK 92 AUDIO
    TITLE "8:cjc057_07324"
    INDEX 01 01:55:13
  TRACK 93 AUDIO
    TITLE "0:"
    INDEX 01 01:57:33
  TRACK 94 AUDIO
    TITLE "7:cjc057_07325"
    INDEX 01 01:58:42
  TRACK 95 AUDIO
    TITLE "0:"
    INDEX 01 01:59:48
  TRACK 96 AUDIO
    TITLE "8:cjc057_07326"
    INDEX 01 02:00:08
  TRACK 97 AUDIO
    TITLE "0:"
    INDEX 01 02:02:32
  TRACK 98 AUDIO
    TITLE "7:cjc057_07327"
    INDEX 01 02:03:41
  TRACK 99 AUDIO
    TITLE "0:"
    INDEX 01 02:04:59
  TRACK 100 AUDIO
    TITLE "8:cjc057_07328"
    INDEX 01 02:05:19
  TRACK 101 AUDIO
    TITLE "0:"
    INDEX 01 02:06:26
  TRACK 102 AUDIO
    TITLE "7:cjc057_07329"
    INDEX 01 02:07:33
  TRACK 103 AUDIO
    TITLE "0:"
    INDEX 01 02:08:39
  TRACK 104 AUDIO
    TITLE "8:cjc057_07330"
    INDEX 01 02:09:01
  TRACK 105 AUDIO
    TITLE "0:"
    INDEX 01 02:09:69
  TRACK 106 AUDIO
    TITLE "7:cjc057_07331"
    INDEX 01 02:11:04
  TRACK 107 AUDIO
    TITLE "0:"
    INDEX 01 02:12:11
  TRACK 108 AUDIO
    TITLE "8:cjc057_07332"
    INDEX 01 02:12:46
  TRACK 109 AUDIO
    TITLE "0:"
    INDEX 01 02:13:59
  TRACK 110 AUDIO
    TITLE "7:cjc057_07333"
    INDEX 01 02:14:69
  TRACK 111 AUDIO
    TITLE "0:"
    INDEX 01 02:16:11
  TRACK 112 AUDIO
    TITLE "8:cjc057_07334"
    INDEX 01 02:16:46
  TRACK 113 AUDIO
    TITLE "0:"
    INDEX 01 02:17:55
